<svg xmlns="http://www.w3.org/2000/svg"
     viewBox="140 140 744 744"
     preserveAspectRatio="xMidYMid meet">

  <rect
    x="140"
    y="140"
    width="744"
    height="744"
    rx="70"
    ry="70"
    fill="#030712"
  />


    <path fill="#fff"
        d="M560.335 312.589c42.376 18.742 84.398 37.347 126.438 55.911 12.946 5.716 25.895 11.431 38.938 16.918 4.61 1.938 6.57 4.986 6.738 9.922.746 21.973-.264 43.941.016 65.91.091 7.16.295 14.318.512 21.475.168 5.573-1.995 9.374-7.295 11.805-27.242 12.497-54.394 25.192-81.573 37.826-1.636.76-3.235 1.6-6.07 3.008l43.158 19.528c-1.153 3.148-3.556 3.43-5.41 4.252-37.746 16.743-75.532 33.397-113.29 50.111-14.921 6.605-29.836 13.228-44.663 20.037-3.62 1.662-6.71 1.734-10.392.085-45.591-20.416-91.243-40.697-136.878-61.015-7.455-3.319-14.92-6.616-22.342-10.007-1.428-.653-3.322-.781-4.209-3.522l40.98-18.415c-.543-3.051-2.745-3.451-4.438-4.246-26.377-12.384-52.72-24.845-79.221-36.955-5.936-2.713-8.721-6.41-8.685-12.97.152-27.826.155-55.654-.008-83.48-.041-6.985 2.395-11.161 9.176-14.12 59.217-25.834 118.283-52.014 177.392-78.096 2.283-1.008 4.277-1.851 4.561-5.127 1.477-17.026 12.822-28.311 28.334-28.584 15.478-.272 27.979 10.852 29.822 27.176.434 3.848 2.038 5.614 5.214 6.904 4.317 1.754 8.568 3.67 13.195 5.669m44.613 47.089c-23.588-10.484-47.21-20.893-70.726-31.539-3.35-1.516-5.97-1.758-9.308-.013-8.231 4.305-16.756 4.205-24.907-.181-3.104-1.67-5.484-1.216-8.392.079-47.765 21.266-95.566 42.455-143.352 63.675-4.629 2.055-9.217 4.202-14.496 6.614 2.528 1.344 4.232 2.374 6.033 3.19 25.032 11.338 50.05 22.708 75.125 33.949 28.262 12.668 56.567 25.239 84.888 37.776 3.192 1.413 5.095 2.937 4.656 7.011-.554 5.135 3.346 9.131 8.18 9.361 4.292.205 9.277-3.74 8.944-8.28-.396-5.41 2.514-7.145 6.581-8.962 52.613-23.507 105.187-47.104 157.758-70.705 1.749-.786 3.811-1.24 5.086-3.969a103860 103860 0 0 1-86.07-38.006M509.694 543.88c-11.115-4.913-22.255-9.769-33.338-14.751a78236 78236 0 0 1-126.145-56.828c-1.981-.895-4.456-1.261-5.917-4.16l39.654-18.177-.119-1.393-65.569-29.478v6.649c.01 14.494.213 28.992-.08 43.48-.094 4.672 1.355 7.153 5.668 9.09 29.766 13.366 59.418 26.986 89.113 40.51 28.94 13.183 57.855 26.425 86.879 39.423 3.413 1.528 4.81 3.097 4.58 6.925-.336 5.557 3.52 9.46 8.58 9.516 5.002.056 9.173-3.937 8.815-9.378-.255-3.869 1.122-5.633 4.457-7.126 26.29-11.766 52.56-23.585 78.75-35.574 32.4-14.831 64.688-29.908 97.108-44.695 4.294-1.958 5.72-4.533 5.625-9.176-.297-14.488-.1-28.986-.178-43.48-.01-1.727.657-3.66-1.224-5.647l-66.827 29.873 42.13 18.774c-2.77 2.822-5.475 3.683-7.983 4.818-31.846 14.415-63.688 28.839-95.562 43.19-20.187 9.088-40.42 18.072-60.65 27.062-2.23.991-4.49 2.44-7.767.553" />
    <path fill="#fff"
        d="M647.78 601.707c18.637-9.011 36.89-17.952 55.242-26.683 3.508-1.67 4.776-3.796 4.716-7.704-.225-14.662 0-29.33-.146-43.995-.033-3.27.821-5.18 4.072-6.381 6.646-2.455 12.553-6.708 19.123-8.52 1.746 1.038 1.515 2.306 1.528 3.416.263 22.823.516 45.646.73 68.469.051 5.451-2.049 9.294-7.35 11.83-55.44 26.518-110.798 53.208-166.178 79.852-1.501.722-2.954 1.566-4.502 2.165-7.827 3.028-13.098 7.102-15.072 16.664-2.687 13.015-16.357 20.624-30.071 19.43-13.41-1.167-23.991-11.007-25.799-25.036-.562-4.366-2.819-5.913-6.036-7.458a90487 90487 0 0 1-87.358-42.013c-30.461-14.67-60.886-29.418-91.394-43.989-4.145-1.98-6.416-5.153-6.447-9.293-.18-23.996-.07-47.994-.027-71.99 0-.61.367-1.219.697-2.245 5.608.987 10.038 4.724 15.27 6.016 7.908 1.952 10.085 6.566 9.648 14.49-.713 12.958-.017 25.99-.243 38.984-.07 3.96 1.41 5.895 4.866 7.588 55.943 27.41 112.48 53.596 168.086 81.693 2.59 1.309 4.448 1.013 6.87-.395 9.739-5.67 19.685-5.55 29.426-.012 2.405 1.367 4.104 1.693 6.771.386 37.695-18.473 75.472-36.78 113.578-55.27M531.01 453.142c-.504.207-.678.24-.81.332-11.849 8.33-23.042 6.476-35.465-.034-16.624-8.712-34.255-15.5-51.43-23.164-2.347-1.047-5.024-1.615-7.228-4.267 8.006-3.673 15.64-7.232 23.32-10.69 16.237-7.31 32.531-14.493 48.72-21.91 3.295-1.51 6-1.618 9.392-.065 22.4 10.253 44.916 20.253 67.368 30.393 1.443.651 3.303.756 4.44 3.05-19.032 9.456-38.742 17.302-58.307 26.355" />
</svg>